<svg width="36" height="36" fill="none" xmlns="http://www.w3.org/2000/svg"><circle cx="18" cy="18" r="18" fill="#F1F5F5"/><path d="M26.01 11.59h-3.746v-.61c0-1.092-.888-1.98-1.98-1.98h-3.56c-1.091 0-1.98.888-1.98 1.98v.61H11c-.278 0-.5.223-.5.5 0 .278.222.5.5.5h.902v11.738c0 1.473 1.2 2.672 2.672 2.672h7.86a2.675 2.675 0 0 0 2.672-2.672V12.59h.903c.278 0 .5-.222.5-.5 0-.277-.222-.5-.5-.5zm-10.266-.61c0-.54.44-.98.98-.98h3.56c.54 0 .981.44.981.98v.61h-5.521v-.61zm8.363 13.348c0 .922-.75 1.673-1.672 1.673h-7.86a1.676 1.676 0 0 1-1.673-1.673V12.59H24.11v11.738h-.004z" fill="#323232"/><path d="M18.505 24.21c.278 0 .5-.221.5-.499v-8.83a.499.499 0 1 0-1 0v8.826a.5.5 0 0 0 .5.504zm-3.261-.55c.277 0 .5-.223.5-.5v-7.73c0-.278-.223-.5-.5-.5-.278 0-.5.222-.5.5v7.73a.5.5 0 0 0 .5.5zm6.521 0c.278 0 .5-.223.5-.5v-7.73c0-.278-.222-.5-.5-.5-.277 0-.5.222-.5.5v7.73c0 .277.223.5.5.5z" fill="#323232"/></svg>